# xmcd CD Database Entry
#
# Track frame offsets:
# 150
# 25010
# 52893
# 73113
# 109344
# 127304
# 147995
# 170717
# 190463
# 210421
# 229568
# 253946
# 274594
# 302792
#
# Disc length: 4342 seconds
#
# Revision: 3
# Processed by: cddbd v1.4b41PL2 Copyright (c) Steve Scherf et al.
# Submitted via: tcd 2.0b
#
DISCID=d410f40e
DTITLE=HAHK/DHMN/
DYEAR=1900
DGENRE=
TTITLE0=Adaye Bhi Hai(Dil Hai ki Manta Nahi)
TTITLE1=Dil Hai Ki(Dil Hai Ki Manta Nahin)
TTITLE2=ice cream(HAHK)
TTITLE3=Didi Tera (HAHK)
TTITLE4=Hum Aap ke Hai Kaun(HAHK)
TTITLE5=Jute Do Paise Lo(HAHK)
TTITLE6=Ye Mausam Ka(HAHK)
TTITLE7=Mai Ni Mai(HAHK)
TTITLE8=Pehla Pehla (HAHK)
TTITLE9=Wah Wah Raam Ji(HAHK)
TTITLE10=Pyaar Nahi Karna(Kachhe Dhaage)
TTITLE11=Hum Na Samjhe The(Gardish)
TTITLE12=Ghoongaht Mein(Ghoonghat)
TTITLE13=Yaara Seeli Seeli(Lekin)
EXTD=
EXTT0=
EXTT1=
EXTT2=
EXTT3=
EXTT4=
EXTT5=
EXTT6=
EXTT7=
EXTT8=
EXTT9=
EXTT10=
EXTT11=
EXTT12=
EXTT13=
PLAYORDER=
